<?xml version="1.0" encoding="utf-8"?>
<!-- generated at drububu.com  -->
<!DOCTYPE svg PUBLIC "-//W3C//DTD SVG 1.1//EN" "http://www.w3.org/Graphics/SVG/1.1/DTD/svg11.dtd">
<svg version="1.1" preserveAspectRatio="xMinYMin meet" xmlns="http://www.w3.org/2000/svg" xmlns:xlink="http://www.w3.org/1999/xlink" x="0px" y="0px" width="217px" height="50px" viewBox="0 0 217 50">
<path d="M0 0h217v28h-1v-1h-1v-1h-5v-1h-1v-1h5v1h2v-3h-2v-1h-7v1h-1v1h-1v4h1v1
	h3v1h4v2h-6v-1h-2v3h2v1h7v-1h2v-1h1v18h-217v-29h2v2h-1v2h3v4h1v1h-1v4h9v1h1v2h1
	v1h1v1h2v3h-1v1h-1v2h13v-2h-1v-1h-1v-1h-1v-2h2v-2h1v-2h1v-2h1v-2h1v-2h1v-5h-1
	v-1h-1v-1h1v-1h1v-2h-1v-1h4v-2h-1v-1h-1v-1h-1v-1h-2v-1h-1v-1h-1v-1h1v-1h-1v-1
	h-1v-1h-1v-1h-2v1h-1v-1h-1v-1h-1v-1h-1v1h-1v1h-1v1h-1v1h-1v1h1v1h1v1h3v1h-1v1h-1
	v1h-1v1h-1v2h1v2h-1v1h-1v1h-1v1h-2v-1h-1v-1h-1v-1h-1v-1h-2v-1h-1v-1h-1v-1h-5v2
	h-1v2h-1v-19z" fill="rgb(255,255,255)"/>
<path d="M21 4h1v1h1v1h1v1h1v-1h2v1h1v1h1v1h1v1h-1v1h1v1h1v1h-2v-1h-1v-1h-2v1
	h-1v-1h-6v-1h-1v-1h-1v-1h1v-1h1v-1h1v-1h1v-1z" fill="rgb(62,18,18)"/>
<path d="M21 6h1v1h-1v-1z" fill="rgb(96,28,28)"/>
<path d="M20 7h1v1h-1v-1z" fill="rgb(96,28,28)"/>
<path d="M21 7h1v1h-1v-1z" fill="rgb(138,39,39)"/>
<path d="M22 7h1v1h-1v-1z" fill="rgb(96,28,28)"/>
<path d="M19 8h1v1h-1v-1z" fill="rgb(96,28,28)"/>
<path d="M20 8h1v1h-1v-1z" fill="rgb(138,39,39)"/>
<path d="M21 8h1v1h1v-1h4v1h-2v1h-5v-1h1v-1z" fill="rgb(96,28,28)"/>
<path d="M22 8h1v1h-1v-1z" fill="rgb(138,39,39)"/>
<path d="M25 9h2v1h-2v-1z" fill="rgb(138,39,39)"/>
<path d="M27 9h1v1h-1v-1z" fill="rgb(96,28,28)"/>
<path d="M22 11h1v2h-1v1h-1v1h-1v2h1v1h-1v2h-1v1h-1v1h-2v-1h1v-1h1v-1h1v-2h-1
	v-2h1v-1h1v-1h1v-1h1v-1z" fill="rgb(30,30,52)"/>
<path d="M23 11h2v1h-1v1h-1v-2z" fill="rgb(66,65,112)"/>
<path d="M26 11h2v1h1v1h1v1h-1v1h-1v1h-3v-1h-1v-2h1v1h1v1h1v-1h1v-1h-1v-1h-1v-1z" fill="rgb(96,28,28)"/>
<path d="M24 12h1v1h-1v-1z" fill="rgb(62,18,18)"/>
<path d="M25 12h1v1h-1v-1z" fill="rgb(96,28,28)"/>
<path d="M26 12h1v2h-2v-1h1v-1z" fill="rgb(219,213,165)"/>
<path d="M22 13h1v2h-2v-1h1v-1z" fill="rgb(76,76,131)"/>
<path d="M23 13h1v2h-1v-2z" fill="rgb(62,18,18)"/>
<path d="M27 13h1v1h-1v-1z" fill="rgb(189,179,91)"/>
<path d="M30 13h3v1h-3v-1z" fill="rgb(23,23,42)"/>
<path d="M26 14h1v1h-1v-1z" fill="rgb(189,179,91)"/>
<path d="M29 14h1v1h-1v-1z" fill="rgb(41,41,61)"/>
<path d="M30 14h2v1h-1v1h-2v-1h1v-1z" fill="rgb(194,194,217)"/>
<path d="M32 14h1v1h-1v-1z" fill="rgb(143,143,185)"/>
<path d="M33 14h1v1h-1v-1z" fill="rgb(23,23,42)"/>
<path d="M2 15h5v1h1v1h1v1h2v1h1v1h1v1h1v1h5v1h-5v1h-1v2h-3v1h-1v1h-1v2h-2v1h-1
	v2h9v1h3v1h-2v1h1v1h1v1h10v-2h1v-1h1v2h-1v2h-2v2h1v1h1v1h1v2h-13v-2h1v1h10v-1
	h-1v-1h-1v-3h-1v3h-1v-3h-2v3h-1v-3h-1v3h-1v-3h-2v-1h-1v-1h-1v-2h-1v-1h-9v-4h1
	v-1h-1v-4h-3v-2h1v-2h-2v-2h1v-2h1v-2z" fill="rgb(23,23,42)"/>
<path d="M20 15h1v1h-1v-1z" fill="rgb(58,58,106)"/>
<path d="M21 15h3v1h1v1h-1v2h-1v-1h-2v-1h-1v-1h1v-1z" fill="rgb(66,65,112)"/>
<path d="M24 15h1v1h-1v-1z" fill="rgb(62,18,18)"/>
<path d="M28 15h1v1h-1v-1z" fill="rgb(62,18,18)"/>
<path d="M31 15h1v1h1v-1h1v1h1v1h-6v-1h2v-1z" fill="rgb(143,143,185)"/>
<path d="M32 15h1v1h-1v-1z" fill="rgb(194,194,217)"/>
<path d="M34 15h1v1h-1v-1z" fill="rgb(23,23,42)"/>
<path d="M3 16h2v1h-2v-1z" fill="rgb(101,101,144)"/>
<path d="M5 16h1v1h-1v-1z" fill="rgb(50,49,91)"/>
<path d="M25 16h3v1h-3v-1z" fill="rgb(62,18,18)"/>
<path d="M28 16h1v1h-1v-1z" fill="rgb(194,194,217)"/>
<path d="M35 16h1v2h-8v-1h7v-1z" fill="rgb(23,23,42)"/>
<path d="M60 16h7v1h2v4h-1v-1h-2v-1h-5v1h-1v1h-1v1h-1v6h1v1h1v1h1v1h5v-1h2v-1h1
	v4h-2v1h-7v-1h-2v-1h-2v-2h-1v-2h-1v-6h1v-2h1v-2h2v-1h2v-1z" fill="rgb(46,46,46)"/>
<path d="M88 16h4v6h2v-1h5v1h1v1h1v2h1v5h-1v2h-1v1h-1v1h-5v-1h-2v1h-4v-18z" fill="rgb(46,46,46)"/>
<path d="M146 16h7v1h2v4h-1v-1h-2v-1h-5v1h-1v1h-1v1h-1v6h1v1h1v1h1v1h5v-1h2v-1
	h1v4h-2v1h-7v-1h-2v-1h-2v-2h-1v-2h-1v-6h1v-2h1v-2h2v-1h2v-1z" fill="rgb(46,46,46)"/>
<path d="M190 16h4v9h1v-1h1v-1h1v-1h1v-1h5v1h-1v1h-1v1h-1v1h-1v1h-1v2h1v1h1v1h1
	v1h1v1h1v1h1v1h-5v-1h-1v-1h-1v-1h-1v-1h-1v-1h-1v5h-4v-18z" fill="rgb(46,46,46)"/>
<path d="M3 17h1v1h-1v-1z" fill="rgb(50,49,91)"/>
<path d="M4 17h1v1h-1v-1z" fill="rgb(58,58,106)"/>
<path d="M5 17h1v1h-1v-1z" fill="rgb(101,101,144)"/>
<path d="M6 17h1v1h-1v-1z" fill="rgb(50,49,91)"/>
<path d="M24 17h2v1h-1v1h-1v-2z" fill="rgb(46,46,80)"/>
<path d="M26 17h1v1h-1v-1z" fill="rgb(30,30,52)"/>
<path d="M27 17h1v1h-1v-1z" fill="rgb(46,46,80)"/>
<path d="M2 18h1v1h1v1h-2v-2z" fill="rgb(50,49,91)"/>
<path d="M3 18h1v1h-1v-1z" fill="rgb(58,58,106)"/>
<path d="M4 18h1v1h-1v-1z" fill="rgb(50,49,91)"/>
<path d="M5 18h1v1h-1v-1z" fill="rgb(58,58,106)"/>
<path d="M6 18h1v1h-1v-1z" fill="rgb(101,101,144)"/>
<path d="M7 18h1v1h-1v-1z" fill="rgb(50,49,91)"/>
<path d="M20 18h1v1h1v1h-2v-2z" fill="rgb(66,65,112)"/>
<path d="M21 18h2v1h1v1h-2v-1h-1v-1z" fill="rgb(46,46,80)"/>
<path d="M25 18h1v1h-1v-1z" fill="rgb(30,30,52)"/>
<path d="M26 18h2v1h-1v1h-1v-2z" fill="rgb(76,76,131)"/>
<path d="M28 18h1v1h-1v-1z" fill="rgb(62,18,18)"/>
<path d="M29 18h2v1h1v2h-1v1h-2v-1h-1v-2h1v-1z" fill="rgb(96,28,28)"/>
<path d="M31 18h1v1h-1v-1z" fill="rgb(62,18,18)"/>
<path d="M4 19h1v1h-1v-1z" fill="rgb(58,58,106)"/>
<path d="M5 19h1v1h-1v-1z" fill="rgb(50,49,91)"/>
<path d="M6 19h1v1h-1v-1z" fill="rgb(58,58,106)"/>
<path d="M7 19h2v1h1v1h-2v-1h-1v-1z" fill="rgb(101,101,144)"/>
<path d="M9 19h1v1h-1v-1z" fill="rgb(50,49,91)"/>
<path d="M24 19h1v1h-1v-1z" fill="rgb(30,30,52)"/>
<path d="M25 19h1v1h-1v-1z" fill="rgb(66,65,112)"/>
<path d="M27 19h1v2h-1v-2z" fill="rgb(62,18,18)"/>
<path d="M32 19h1v2h-1v-2z" fill="rgb(62,18,18)"/>
<path d="M4 20h1v1h-1v-1z" fill="rgb(50,49,91)"/>
<path d="M5 20h1v1h-1v-1z" fill="rgb(58,58,106)"/>
<path d="M6 20h1v1h-1v-1z" fill="rgb(50,49,91)"/>
<path d="M7 20h1v1h-1v-1z" fill="rgb(58,58,106)"/>
<path d="M10 20h1v1h-1v-1z" fill="rgb(50,49,91)"/>
<path d="M19 20h1v1h-1v-1z" fill="rgb(66,65,112)"/>
<path d="M20 20h4v1h-3v1h-2v-1h1v-1z" fill="rgb(30,30,52)"/>
<path d="M24 20h1v1h-1v-1z" fill="rgb(66,65,112)"/>
<path d="M25 20h1v1h-1v-1z" fill="rgb(76,76,131)"/>
<path d="M26 20h1v1h-1v-1z" fill="rgb(66,65,112)"/>
<path d="M7 21h1v1h-1v-1z" fill="rgb(50,49,91)"/>
<path d="M8 21h1v1h-1v-1z" fill="rgb(58,58,106)"/>
<path d="M9 21h1v2h-1v-2z" fill="rgb(50,49,91)"/>
<path d="M10 21h1v1h-1v-1z" fill="rgb(101,101,144)"/>
<path d="M11 21h1v1h-1v-1z" fill="rgb(50,49,91)"/>
<path d="M18 21h1v1h-1v-1z" fill="rgb(66,65,112)"/>
<path d="M21 21h2v1h-1v1h-1v1h-1v-2h1v-1z" fill="rgb(143,143,185)"/>
<path d="M23 21h1v1h-1v-1z" fill="rgb(35,35,65)"/>
<path d="M24 21h2v3h-1v-2h-1v-1z" fill="rgb(30,30,52)"/>
<path d="M26 21h2v1h-1v1h1v1h1v1h1v1h1v1h1v1h-2v-1h-2v-1h-1v-2h-1v-3z" fill="rgb(76,76,131)"/>
<path d="M28 21h1v1h-1v-1z" fill="rgb(62,18,18)"/>
<path d="M31 21h1v1h-1v-1z" fill="rgb(62,18,18)"/>
<path d="M70 21h5v3h1v2h1v2h1v-2h1v-2h1v-3h5v1h-1v3h-1v2h-1v3h-1v2h-1v3h-1v2h-1
	v1h-1v1h-5v-3h3v-5h-1v-2h-1v-2h-1v-3h-1v-2h-1v-1z" fill="rgb(46,46,46)"/>
<path d="M108 21h6v1h2v1h1v2h1v4h-10v1h1v1h6v-1h2v3h-2v1h-7v-1h-2v-1h-1v-2h-1
	v-5h1v-2h1v-1h2v-1z" fill="rgb(46,46,46)"/>
<path d="M121 21h4v1h2v-1h4v4h-1v-1h-3v1h-1v1h-1v8h-4v-13z" fill="rgb(46,46,46)"/>
<path d="M162 21h6v1h2v1h1v2h1v5h-1v2h-1v1h-2v1h-6v-1h-2v-1h-1v-2h-1v-5h1v-2h1
	v-1h2v-1z" fill="rgb(46,46,46)"/>
<path d="M179 21h7v1h1v3h-1v-1h-5v1h-1v1h-1v3h1v1h1v1h5v-1h1v3h-1v1h-7v-1h-2v-1
	h-1v-2h-1v-5h1v-2h1v-1h2v-1z" fill="rgb(46,46,46)"/>
<path d="M207 21h7v1h2v3h-2v-1h-5v1h1v1h5v1h1v1h1v4h-1v1h-2v1h-7v-1h-2v-3h2v1h6
	v-2h-4v-1h-3v-1h-1v-4h1v-1h1v-1z" fill="rgb(46,46,46)"/>
<path d="M3 22h1v1h-1v-1z" fill="rgb(35,35,65)"/>
<path d="M4 22h1v1h-1v-1z" fill="rgb(50,49,91)"/>
<path d="M5 22h1v1h-1v-1z" fill="rgb(35,35,65)"/>
<path d="M10 22h1v1h-1v-1z" fill="rgb(58,58,106)"/>
<path d="M11 22h1v1h-1v-1z" fill="rgb(101,101,144)"/>
<path d="M12 22h1v1h-1v-1z" fill="rgb(50,49,91)"/>
<path d="M19 22h1v2h1v1h2v1h-4v1h-1v1h-1v1h-1v1h-2v3h-1v-3h-5v-1h7v-1h1v-1h1v-1
	h-4v-1h6v-3z" fill="rgb(35,35,65)"/>
<path d="M22 22h3v1h-1v1h-1v1h-2v-2h1v-1z" fill="rgb(106,106,154)"/>
<path d="M27 22h1v1h-1v-1z" fill="rgb(66,65,112)"/>
<path d="M28 22h1v1h-1v-1z" fill="rgb(76,76,131)"/>
<path d="M29 22h2v1h-2v-1z" fill="rgb(62,18,18)"/>
<path d="M3 23h1v1h-1v-1z" fill="rgb(50,49,91)"/>
<path d="M4 23h1v1h-1v-1z" fill="rgb(35,35,65)"/>
<path d="M5 23h1v1h-1v-1z" fill="rgb(50,49,91)"/>
<path d="M6 23h1v1h-1v-1z" fill="rgb(35,35,65)"/>
<path d="M7 23h1v1h-1v-1z" fill="rgb(50,49,91)"/>
<path d="M11 23h1v1h-1v-1z" fill="rgb(50,49,91)"/>
<path d="M14 23h5v1h-5v-1z" fill="rgb(50,49,91)"/>
<path d="M24 23h1v1h-1v-1z" fill="rgb(64,64,94)"/>
<path d="M28 23h1v1h-1v-1z" fill="rgb(66,65,112)"/>
<path d="M29 23h2v2h-1v-1h-1v-1z" fill="rgb(76,76,131)"/>
<path d="M31 23h1v1h1v5h-1v2h-1v2h-1v2h-7v-1h6v-2h1v-2h1v-1h-1v-1h2v-3h-1v-2z" fill="rgb(30,30,52)"/>
<path d="M5 24h1v1h-1v-1z" fill="rgb(35,35,65)"/>
<path d="M6 24h1v1h-1v-1z" fill="rgb(50,49,91)"/>
<path d="M7 24h1v1h-1v-1z" fill="rgb(35,35,65)"/>
<path d="M8 24h1v1h-1v-1z" fill="rgb(50,49,91)"/>
<path d="M9 24h1v1h-1v-1z" fill="rgb(35,35,65)"/>
<path d="M13 24h6v1h-6v-1z" fill="rgb(58,58,106)"/>
<path d="M23 24h1v1h-1v-1z" fill="rgb(64,64,94)"/>
<path d="M24 24h1v1h-1v-1z" fill="rgb(23,23,42)"/>
<path d="M25 24h1v2h-1v1h-2v-1h1v-1h1v-1z" fill="rgb(76,76,131)"/>
<path d="M26 24h1v2h-1v-2z" fill="rgb(30,30,52)"/>
<path d="M29 24h1v1h-1v-1z" fill="rgb(66,65,112)"/>
<path d="M93 24h4v1h1v5h-1v1h-4v-1h-1v-5h1v-1z" fill="rgb(255,255,255)"/>
<path d="M109 24h4v1h1v1h-6v-1h1v-1z" fill="rgb(255,255,255)"/>
<path d="M163 24h4v1h1v5h-1v1h-4v-1h-1v-5h1v-1z" fill="rgb(255,255,255)"/>
<path d="M23 25h1v1h-1v-1z" fill="rgb(23,23,42)"/>
<path d="M30 25h1v1h-1v-1z" fill="rgb(66,65,112)"/>
<path d="M31 25h1v1h-1v-1z" fill="rgb(76,76,131)"/>
<path d="M5 26h3v1h-1v1h-2v-2z" fill="rgb(35,35,65)"/>
<path d="M10 26h7v1h-1v1h-7v-1h1v-1z" fill="rgb(50,49,91)"/>
<path d="M19 26h2v1h-1v1h-1v1h-1v1h-1v1h-1v1h-2v-2h2v-1h1v-1h1v-1h1v-1z" fill="rgb(143,143,185)"/>
<path d="M21 26h1v2h-1v2h-1v1h-1v1h-1v1h-1v1h-3v-2h2v-1h1v-1h1v-1h1v-1h1v-1h1
	v-1z" fill="rgb(106,106,154)"/>
<path d="M22 26h1v2h-1v-2z" fill="rgb(23,23,42)"/>
<path d="M25 26h1v1h-1v-1z" fill="rgb(66,65,112)"/>
<path d="M26 26h1v1h-1v-1z" fill="rgb(76,76,131)"/>
<path d="M27 26h1v1h-1v-1z" fill="rgb(30,30,52)"/>
<path d="M31 26h1v1h-1v-1z" fill="rgb(66,65,112)"/>
<path d="M23 27h2v1h-1v1h-1v-2z" fill="rgb(66,65,112)"/>
<path d="M25 27h1v1h-1v-1z" fill="rgb(76,76,131)"/>
<path d="M26 27h1v1h-1v-1z" fill="rgb(66,65,112)"/>
<path d="M27 27h1v1h-1v-1z" fill="rgb(76,76,131)"/>
<path d="M28 27h2v1h-2v-1z" fill="rgb(30,30,52)"/>
<path d="M8 28h7v1h-7v-1z" fill="rgb(58,58,106)"/>
<path d="M21 28h1v3h-1v-3z" fill="rgb(23,23,42)"/>
<path d="M22 28h1v1h-1v-1z" fill="rgb(76,76,131)"/>
<path d="M24 28h1v1h-1v-1z" fill="rgb(76,76,131)"/>
<path d="M25 28h1v1h-1v-1z" fill="rgb(66,65,112)"/>
<path d="M26 28h1v1h-1v-1z" fill="rgb(76,76,131)"/>
<path d="M27 28h1v1h-1v-1z" fill="rgb(66,65,112)"/>
<path d="M28 28h1v1h-1v-1z" fill="rgb(76,76,131)"/>
<path d="M29 28h1v1h-1v-1z" fill="rgb(66,65,112)"/>
<path d="M22 29h1v1h1v1h1v-1h1v-1h1v1h1v1h-1v1h1v1h-1v1h-4v-1h-1v-1h-1v-1h1v-2z" fill="rgb(66,65,112)"/>
<path d="M23 29h1v1h-1v-1z" fill="rgb(76,76,131)"/>
<path d="M24 29h1v1h-1v-1z" fill="rgb(66,65,112)"/>
<path d="M25 29h1v1h-1v-1z" fill="rgb(76,76,131)"/>
<path d="M27 29h1v1h-1v-1z" fill="rgb(76,76,131)"/>
<path d="M28 29h1v1h-1v-1z" fill="rgb(66,65,112)"/>
<path d="M29 29h2v1h-2v-1z" fill="rgb(76,76,131)"/>
<path d="M6 30h7v2h-8v-1h1v-1z" fill="rgb(50,49,91)"/>
<path d="M20 30h1v1h-1v-1z" fill="rgb(64,64,94)"/>
<path d="M24 30h1v1h-1v-1z" fill="rgb(76,76,131)"/>
<path d="M28 30h1v1h-1v-1z" fill="rgb(76,76,131)"/>
<path d="M29 30h1v1h-1v-1z" fill="rgb(66,65,112)"/>
<path d="M19 31h1v1h-1v-1z" fill="rgb(64,64,94)"/>
<path d="M20 31h1v1h-1v-1z" fill="rgb(23,23,42)"/>
<path d="M27 31h1v1h-1v-1z" fill="rgb(76,76,131)"/>
<path d="M28 31h1v1h-1v-1z" fill="rgb(66,65,112)"/>
<path d="M29 31h1v1h-1v-1z" fill="rgb(76,76,131)"/>
<path d="M5 32h8v1h-8v-1z" fill="rgb(58,58,106)"/>
<path d="M18 32h1v1h-1v-1z" fill="rgb(64,64,94)"/>
<path d="M19 32h1v1h-1v-1z" fill="rgb(23,23,42)"/>
<path d="M20 32h1v1h1v1h1v2h-1v1h-1v-2h-1v2h-1v-1h-1v1h-1v-1h-1v-1h1v-1h2v-1h1
	v-1z" fill="rgb(35,35,65)"/>
<path d="M21 32h1v1h-1v-1z" fill="rgb(30,30,52)"/>
<path d="M28 32h1v1h-1v-1z" fill="rgb(76,76,131)"/>
<path d="M17 33h2v1h-2v-1z" fill="rgb(23,23,42)"/>
<path d="M22 33h1v1h-1v-1z" fill="rgb(30,30,52)"/>
<path d="M27 33h1v1h-1v-1z" fill="rgb(76,76,131)"/>
<path d="M28 33h1v1h-1v-1z" fill="rgb(66,65,112)"/>
<path d="M15 35h1v1h-1v-1z" fill="rgb(50,49,91)"/>
<path d="M20 35h1v2h-1v-2z" fill="rgb(50,49,91)"/>
<path d="M23 35h1v1h-1v-1z" fill="rgb(50,49,91)"/>
<path d="M24 35h3v1h-1v1h-1v-1h-1v-1z" fill="rgb(35,35,65)"/>
<path d="M27 35h1v1h-1v-1z" fill="rgb(50,49,91)"/>
<path d="M16 36h1v1h-1v-1z" fill="rgb(50,49,91)"/>
<path d="M18 36h1v1h-1v-1z" fill="rgb(50,49,91)"/>
<path d="M22 36h1v1h-1v-1z" fill="rgb(50,49,91)"/>
<path d="M23 36h1v1h-1v-1z" fill="rgb(35,35,65)"/>
<path d="M24 36h1v1h-1v-1z" fill="rgb(50,49,91)"/>
<path d="M26 36h1v1h-1v-1z" fill="rgb(50,49,91)"/>
<path d="M17 37h1v1h-1v-1z" fill="rgb(50,49,91)"/>
<path d="M18 37h1v1h-1v-1z" fill="rgb(35,35,65)"/>
<path d="M19 37h1v1h-1v-1z" fill="rgb(50,49,91)"/>
<path d="M20 37h1v1h-1v-1z" fill="rgb(35,35,65)"/>
<path d="M21 37h1v1h-1v-1z" fill="rgb(50,49,91)"/>
<path d="M22 37h1v1h-1v-1z" fill="rgb(35,35,65)"/>
<path d="M23 37h1v1h-1v-1z" fill="rgb(50,49,91)"/>
<path d="M24 37h1v1h-1v-1z" fill="rgb(35,35,65)"/>
<path d="M25 37h1v1h-1v-1z" fill="rgb(50,49,91)"/>
<path d="M26 37h1v1h-1v-1z" fill="rgb(35,35,65)"/>
<path d="M19 39h1v3h1v1h2v-1h1v-3h1v3h1v1h1v1h-10v-1h1v-1h1v-3z" fill="rgb(35,35,65)"/>
<path d="M21 39h2v3h-2v-3z" fill="rgb(255,255,255)"/>
<path d="M17 42h1v1h-1v-1z" fill="rgb(23,23,42)"/>
<path d="M21 42h2v1h-2v-1z" fill="rgb(23,23,42)"/>
</svg>